<svg width="33" height="33" viewBox="0 0 33 33" fill="none" xmlns="http://www.w3.org/2000/svg">
<g clip-path="url(#clip0_105_438)">
<path d="M32.5 16.8409C32.5 8.00438 25.3366 0.840942 16.5 0.840942C7.66344 0.840942 0.5 8.00438 0.5 16.8409C0.5 24.8269 6.35094 31.4463 14 32.6466V21.4659H9.9375V16.8409H14V13.3159C14 9.30594 16.3888 7.09094 20.0434 7.09094C21.7934 7.09094 23.625 7.40344 23.625 7.40344V11.3409H21.6075C19.62 11.3409 19 12.5744 19 13.8409V16.8409H23.4375L22.7281 21.4659H19V32.6466C26.6491 31.4463 32.5 24.8269 32.5 16.8409Z" fill="white"/>
<path d="M22.7281 21.4659L23.4375 16.8409H19V13.8409C19 12.5756 19.62 11.3409 21.6075 11.3409H23.625V7.40344C23.625 7.40344 21.7941 7.09094 20.0434 7.09094C16.3888 7.09094 14 9.30594 14 13.3159V16.8409H9.9375V21.4659H14V32.6466C15.6566 32.9057 17.3434 32.9057 19 32.6466V21.4659H22.7281Z" fill="#212123"/>
</g>
<defs>
<clipPath id="clip0_105_438">
<rect width="32" height="32" fill="white" transform="translate(0.5 0.840942)"/>
</clipPath>
</defs>
</svg>
