<svg width="181" height="10" viewBox="0 0 181 10" fill="none" xmlns="http://www.w3.org/2000/svg">
<path d="M175.425 5.98632C175.425 5.52739 175.482 5.10638 175.595 4.72331C175.713 4.33644 175.88 4.00456 176.096 3.72769C176.309 3.45081 176.566 3.23462 176.87 3.07911C177.173 2.9236 177.513 2.84585 177.888 2.84585C178.256 2.84585 178.577 2.90843 178.85 3.0336C179.127 3.15497 179.366 3.33323 179.567 3.56839V0.376709H180.619V9.11542H179.652L179.606 8.46684C179.402 8.71717 179.157 8.90681 178.873 9.03577C178.588 9.16473 178.256 9.2292 177.877 9.2292C177.505 9.2292 177.168 9.14956 176.864 8.99026C176.565 8.83096 176.309 8.61097 176.096 8.3303C175.884 8.04963 175.719 7.71965 175.601 7.34037C175.484 6.95729 175.425 6.54577 175.425 6.1058V5.98632ZM176.477 6.1058C176.477 6.40543 176.51 6.6899 176.574 6.95919C176.639 7.22848 176.739 7.46553 176.876 7.67035C177.008 7.87516 177.179 8.03825 177.388 8.15962C177.596 8.2772 177.847 8.33599 178.139 8.33599C178.491 8.33599 178.783 8.25634 179.015 8.09704C179.246 7.93774 179.43 7.72345 179.567 7.45415V4.59814C179.43 4.34782 179.246 4.143 179.015 3.9837C178.783 3.82061 178.495 3.73906 178.15 3.73906C177.854 3.73906 177.6 3.79975 177.388 3.92112C177.179 4.04249 177.008 4.20558 176.876 4.4104C176.739 4.619 176.639 4.85985 176.574 5.13293C176.51 5.40223 176.477 5.68669 176.477 5.98632V6.1058Z" fill="#0E21A1"/>
<path d="M172.661 2.84546C172.854 2.84546 173.055 2.85873 173.264 2.88528C173.476 2.91183 173.635 2.94787 173.742 2.99338L173.599 4.02314C173.395 3.97762 173.199 3.94538 173.013 3.92642C172.831 3.90366 172.64 3.89228 172.439 3.89228C172.181 3.89228 171.948 3.92452 171.739 3.989C171.53 4.04969 171.348 4.14072 171.193 4.26209C171.052 4.36829 170.929 4.49914 170.823 4.65465C170.721 4.80636 170.635 4.97704 170.567 5.16668V9.11503H169.509V2.95924H170.51L170.556 3.78419L170.561 3.9378C170.812 3.60023 171.111 3.33474 171.46 3.1413C171.813 2.94407 172.213 2.84546 172.661 2.84546Z" fill="#0E21A1"/>
<path d="M165.674 9.11503C165.632 9.03538 165.598 8.93676 165.571 8.81919C165.549 8.69782 165.532 8.57265 165.52 8.4437C165.414 8.54989 165.295 8.65041 165.162 8.74523C165.033 8.84005 164.891 8.92349 164.735 8.99555C164.576 9.06762 164.407 9.12451 164.229 9.16623C164.051 9.20795 163.861 9.22881 163.66 9.22881C163.334 9.22881 163.038 9.1814 162.772 9.08658C162.511 8.99176 162.289 8.8628 162.107 8.69971C161.921 8.54041 161.777 8.35077 161.674 8.13079C161.576 7.90701 161.526 7.66616 161.526 7.40825C161.526 7.07069 161.593 6.77484 161.725 6.52072C161.862 6.2666 162.054 6.0542 162.3 5.88353C162.547 5.71664 162.842 5.59148 163.188 5.50803C163.537 5.42459 163.925 5.38287 164.354 5.38287H165.503V4.89928C165.503 4.71343 165.469 4.54655 165.401 4.39863C165.332 4.25071 165.236 4.12365 165.111 4.01745C164.985 3.91504 164.832 3.83539 164.65 3.7785C164.472 3.72161 164.27 3.69316 164.047 3.69316C163.838 3.69316 163.65 3.71971 163.483 3.77281C163.32 3.82591 163.182 3.89608 163.068 3.98331C162.954 4.07055 162.865 4.17485 162.801 4.29622C162.74 4.4138 162.71 4.53707 162.71 4.66602H161.652C161.655 4.44225 161.712 4.22226 161.822 4.00607C161.936 3.78988 162.099 3.59455 162.311 3.42007C162.52 3.2494 162.774 3.11096 163.074 3.00476C163.377 2.89856 163.721 2.84546 164.104 2.84546C164.453 2.84546 164.777 2.88908 165.076 2.97631C165.376 3.05975 165.636 3.18681 165.856 3.35749C166.072 3.53196 166.243 3.74816 166.368 4.00607C166.493 4.26398 166.556 4.56551 166.556 4.91066V7.77236C166.556 7.97718 166.575 8.19526 166.613 8.42663C166.651 8.6542 166.704 8.85332 166.772 9.024V9.11503H165.674ZM163.813 8.31284C164.018 8.31284 164.21 8.28629 164.388 8.23319C164.566 8.18009 164.729 8.10993 164.877 8.02269C165.021 7.93545 165.147 7.83684 165.253 7.72685C165.359 7.61306 165.442 7.49548 165.503 7.37411V6.12816H164.525C164.161 6.12816 163.842 6.1604 163.569 6.22488C163.3 6.28557 163.085 6.38039 162.926 6.50935C162.812 6.60037 162.725 6.70847 162.664 6.83363C162.607 6.9588 162.579 7.10103 162.579 7.26033C162.579 7.41204 162.604 7.55238 162.653 7.68133C162.706 7.81029 162.784 7.92028 162.886 8.01131C162.989 8.10613 163.117 8.18009 163.273 8.23319C163.428 8.28629 163.609 8.31284 163.813 8.31284Z" fill="#0E21A1"/>
<path d="M155.222 9.1155L153.913 2.95972H154.846L155.563 6.88531L155.688 7.76714L155.842 6.88531L156.826 2.95972H157.503L158.482 6.88531L158.647 7.85248L158.8 6.88531L159.483 2.95972H160.416L159.107 9.1155H158.277L157.315 5.34352L157.156 4.38772L157.002 5.34352L156.052 9.1155H155.222Z" fill="#0E21A1"/>
<path d="M151.667 2.84546C151.86 2.84546 152.061 2.85873 152.27 2.88528C152.482 2.91183 152.641 2.94787 152.747 2.99338L152.605 4.02314C152.4 3.97762 152.205 3.94538 152.019 3.92642C151.837 3.90366 151.646 3.89228 151.445 3.89228C151.187 3.89228 150.953 3.92452 150.745 3.989C150.536 4.04969 150.354 4.14072 150.199 4.26209C150.058 4.36829 149.935 4.49914 149.829 4.65465C149.726 4.80636 149.641 4.97704 149.573 5.16668V9.11503H148.515V2.95924H149.516L149.561 3.78419L149.567 3.9378C149.817 3.60023 150.117 3.33474 150.466 3.1413C150.819 2.94407 151.219 2.84546 151.667 2.84546Z" fill="#0E21A1"/>
<path d="M140.339 5.98024C140.339 5.53648 140.403 5.12496 140.532 4.74567C140.661 4.3626 140.847 4.03072 141.09 3.75005C141.329 3.46938 141.621 3.2494 141.966 3.0901C142.311 2.92701 142.7 2.84546 143.132 2.84546C143.568 2.84546 143.959 2.92701 144.304 3.0901C144.653 3.2494 144.949 3.46938 145.192 3.75005C145.431 4.03072 145.615 4.3626 145.744 4.74567C145.873 5.12496 145.937 5.53648 145.937 5.98024V6.10541C145.937 6.54917 145.873 6.96069 145.744 7.33998C145.615 7.71926 145.431 8.04924 145.192 8.32991C144.949 8.61058 144.655 8.83057 144.31 8.98986C143.965 9.14916 143.576 9.22881 143.144 9.22881C142.708 9.22881 142.315 9.14916 141.966 8.98986C141.621 8.83057 141.329 8.61058 141.09 8.32991C140.847 8.04924 140.661 7.71926 140.532 7.33998C140.403 6.96069 140.339 6.54917 140.339 6.10541V5.98024ZM141.391 6.10541C141.391 6.40883 141.427 6.69899 141.499 6.97586C141.572 7.24895 141.682 7.4898 141.829 7.6984C141.974 7.90701 142.156 8.072 142.376 8.19337C142.596 8.31474 142.852 8.37542 143.144 8.37542C143.432 8.37542 143.684 8.31474 143.9 8.19337C144.12 8.072 144.304 7.90701 144.452 7.6984C144.596 7.4898 144.704 7.24895 144.777 6.97586C144.849 6.69899 144.885 6.40883 144.885 6.10541V5.98024C144.885 5.68061 144.847 5.39425 144.771 5.12116C144.699 4.84429 144.591 4.60155 144.447 4.39294C144.299 4.18433 144.115 4.01934 143.895 3.89797C143.678 3.77281 143.424 3.71023 143.132 3.71023C142.84 3.71023 142.586 3.77281 142.37 3.89797C142.154 4.01934 141.974 4.18433 141.829 4.39294C141.682 4.60155 141.572 4.84429 141.499 5.12116C141.427 5.39425 141.391 5.68061 141.391 5.98024V6.10541Z" fill="#0E21A1"/>
<path d="M138.247 5.45691H134.799V9.11511H133.735V0.831543H138.822V1.73045H134.799V4.5637H138.247V5.45691Z" fill="#0E21A1"/>
<path d="M121.474 8.43295C121.474 8.20917 121.542 8.01763 121.678 7.85833C121.815 7.69903 122.022 7.61938 122.299 7.61938C122.572 7.61938 122.778 7.69903 122.919 7.85833C123.063 8.01384 123.135 8.20538 123.135 8.43295C123.135 8.65673 123.063 8.84447 122.919 8.99619C122.775 9.1479 122.568 9.22376 122.299 9.22376C122.025 9.22376 121.819 9.1479 121.678 8.99619C121.542 8.84068 121.474 8.65293 121.474 8.43295Z" fill="#0E21A1"/>
<path d="M115.362 9.22881C114.93 9.22881 114.532 9.15485 114.168 9.00693C113.807 8.85901 113.498 8.6523 113.24 8.3868C112.982 8.1213 112.781 7.8065 112.637 7.44238C112.493 7.07827 112.421 6.68192 112.421 6.25333V6.01438C112.421 5.51752 112.501 5.07375 112.66 4.68309C112.819 4.28864 113.032 3.95487 113.297 3.68178C113.559 3.41249 113.856 3.20578 114.19 3.06165C114.528 2.91752 114.873 2.84546 115.226 2.84546C115.669 2.84546 116.056 2.92321 116.386 3.07872C116.72 3.23043 116.997 3.44094 117.217 3.71023C117.437 3.98331 117.6 4.30381 117.706 4.67171C117.816 5.03962 117.871 5.43787 117.871 5.86646V6.33867H113.473V6.37849C113.5 6.67813 113.559 6.94173 113.65 7.1693C113.745 7.39687 113.874 7.59789 114.037 7.77236C114.204 7.95821 114.405 8.10424 114.64 8.21044C114.875 8.31664 115.135 8.36973 115.419 8.36973C115.795 8.36973 116.128 8.29388 116.42 8.14216C116.713 7.99045 116.955 7.78943 117.149 7.5391L117.792 8.03976C117.587 8.35077 117.28 8.62765 116.87 8.87039C116.464 9.10934 115.962 9.22881 115.362 9.22881ZM115.226 3.71023C115.013 3.71023 114.812 3.75005 114.623 3.8297C114.433 3.90556 114.262 4.01745 114.111 4.16537C113.959 4.31708 113.83 4.50293 113.724 4.72292C113.621 4.93911 113.549 5.18944 113.508 5.4739H116.819V5.4227C116.819 5.23305 116.783 5.03014 116.711 4.81394C116.639 4.59396 116.538 4.40432 116.409 4.24502C116.28 4.08572 116.117 3.95676 115.92 3.85815C115.726 3.75953 115.495 3.71023 115.226 3.71023Z" fill="#0E21A1"/>
<path d="M105.446 5.98632C105.446 5.52739 105.503 5.10638 105.617 4.72331C105.735 4.33644 105.901 4.00456 106.118 3.72769C106.33 3.45081 106.588 3.23462 106.891 3.07911C107.195 2.9236 107.534 2.84585 107.91 2.84585C108.278 2.84585 108.598 2.90843 108.871 3.0336C109.148 3.15497 109.387 3.33323 109.588 3.56839V0.376709H110.641V9.11542H109.673L109.628 8.46684C109.423 8.71717 109.178 8.90681 108.894 9.03577C108.61 9.16473 108.278 9.2292 107.898 9.2292C107.527 9.2292 107.189 9.14956 106.886 8.99026C106.586 8.83096 106.33 8.61097 106.118 8.3303C105.905 8.04963 105.74 7.71965 105.623 7.34037C105.505 6.95729 105.446 6.54577 105.446 6.1058V5.98632ZM106.499 6.1058C106.499 6.40543 106.531 6.6899 106.596 6.95919C106.66 7.22848 106.761 7.46553 106.897 7.67035C107.03 7.87516 107.2 8.03825 107.409 8.15962C107.618 8.2772 107.868 8.33599 108.16 8.33599C108.513 8.33599 108.805 8.25634 109.036 8.09704C109.268 7.93774 109.452 7.72345 109.588 7.45415V4.59814C109.452 4.34782 109.268 4.143 109.036 3.9837C108.805 3.82061 108.517 3.73906 108.171 3.73906C107.876 3.73906 107.621 3.79975 107.409 3.92112C107.2 4.04249 107.03 4.20558 106.897 4.4104C106.761 4.619 106.66 4.85985 106.596 5.13293C106.531 5.40223 106.499 5.68669 106.499 5.98632V6.1058Z" fill="#0E21A1"/>
<path d="M102.705 9.1155L102.642 8.2678C102.438 8.57123 102.182 8.80828 101.874 8.97896C101.567 9.14584 101.212 9.22929 100.81 9.22929C100.488 9.22929 100.196 9.17998 99.9343 9.08137C99.6726 8.97896 99.4488 8.82156 99.2629 8.60916C99.0771 8.39676 98.9329 8.12747 98.8305 7.80128C98.7319 7.4713 98.6826 7.07685 98.6826 6.61791V2.95972H99.7351V6.62929C99.7351 6.96306 99.7617 7.23994 99.8148 7.45993C99.8679 7.67991 99.9475 7.85438 100.054 7.98334C100.16 8.11609 100.289 8.20901 100.441 8.26211C100.596 8.31521 100.774 8.34176 100.975 8.34176C101.211 8.34176 101.421 8.31521 101.607 8.26211C101.793 8.20522 101.954 8.12747 102.09 8.02885C102.204 7.9492 102.303 7.85438 102.386 7.74439C102.474 7.6306 102.546 7.50734 102.603 7.37459V2.95972H103.661V9.1155H102.705Z" fill="#0E21A1"/>
<path d="M94.1408 1.46899V2.95958H96.4847V3.77315H94.1408V7.11843C94.1408 7.35738 94.1711 7.55461 94.2318 7.71012C94.2925 7.86562 94.3759 7.98889 94.4821 8.07992C94.5883 8.17474 94.7097 8.24111 94.8462 8.27904C94.9866 8.31697 95.1345 8.33594 95.29 8.33594C95.4038 8.33594 95.5214 8.33025 95.6427 8.31887C95.7641 8.3037 95.8836 8.28663 96.0012 8.26766C96.1149 8.2487 96.2211 8.22974 96.3198 8.21077C96.4222 8.18801 96.5056 8.16905 96.5701 8.15388L96.718 8.89917C96.6308 8.95227 96.5246 8.99968 96.3994 9.0414C96.2742 9.07933 96.1377 9.11157 95.9898 9.13812C95.8419 9.16846 95.6844 9.19122 95.5176 9.20639C95.3545 9.22156 95.1914 9.22915 95.0283 9.22915C94.7552 9.22915 94.4992 9.19122 94.2602 9.11537C94.0251 9.03572 93.8203 8.91055 93.6458 8.73987C93.4713 8.57299 93.3329 8.3568 93.2305 8.0913C93.1319 7.82201 93.0826 7.49772 93.0826 7.11843V3.77315H91.4668V2.95958H93.0826V1.46899H94.1408Z" fill="#0E21A1"/>
<path d="M84.8154 2.95927H87.9616V8.20477H89.9699V9.11505H84.8154V8.20477H86.9091V3.87524H84.8154V2.95927ZM86.7725 1.34352C86.7725 1.25249 86.7858 1.16715 86.8124 1.0875C86.8427 1.00785 86.8882 0.939581 86.9489 0.882688C86.9982 0.833381 87.0608 0.795453 87.1367 0.768903C87.2163 0.73856 87.3054 0.723389 87.4041 0.723389C87.5027 0.723389 87.5899 0.73856 87.6658 0.768903C87.7416 0.795453 87.8042 0.833381 87.8535 0.882688C87.9142 0.935788 87.9597 1.00216 87.99 1.08181C88.0204 1.16146 88.0356 1.2487 88.0356 1.34352C88.0356 1.5142 87.9825 1.65643 87.8763 1.77021C87.7701 1.884 87.6127 1.94089 87.4041 1.94089C87.1917 1.94089 87.0324 1.884 86.9262 1.77021C86.8237 1.65643 86.7725 1.5142 86.7725 1.34352Z" fill="#0E21A1"/>
<path d="M80.1466 1.46899V2.95958H82.4906V3.77315H80.1466V7.11843C80.1466 7.35738 80.177 7.55461 80.2376 7.71012C80.2983 7.86562 80.3818 7.98889 80.488 8.07992C80.5942 8.17474 80.7155 8.24111 80.8521 8.27904C80.9924 8.31697 81.1403 8.33594 81.2959 8.33594C81.4096 8.33594 81.5272 8.33025 81.6486 8.31887C81.77 8.3037 81.8894 8.28663 82.007 8.26766C82.1208 8.2487 82.227 8.22974 82.3256 8.21077C82.428 8.18801 82.5115 8.16905 82.5759 8.15388L82.7239 8.89917C82.6366 8.95227 82.5304 8.99968 82.4053 9.0414C82.2801 9.07933 82.1436 9.11157 81.9956 9.13812C81.8477 9.16846 81.6903 9.19122 81.5234 9.20639C81.3603 9.22156 81.1972 9.22915 81.0341 9.22915C80.7611 9.22915 80.505 9.19122 80.2661 9.11537C80.0309 9.03572 79.8261 8.91055 79.6516 8.73987C79.4772 8.57299 79.3387 8.3568 79.2363 8.0913C79.1377 7.82201 79.0884 7.49772 79.0884 7.11843V3.77315H77.4727V2.95958H79.0884V1.46899H80.1466Z" fill="#0E21A1"/>
<path d="M74.689 2.84546C74.8824 2.84546 75.0834 2.85873 75.292 2.88528C75.5044 2.91183 75.6637 2.94787 75.7699 2.99338L75.6277 4.02314C75.4229 3.97762 75.2276 3.94538 75.0417 3.92642C74.8596 3.90366 74.6681 3.89228 74.4671 3.89228C74.2092 3.89228 73.9759 3.92452 73.7673 3.989C73.5587 4.04969 73.3766 4.14072 73.2211 4.26209C73.0808 4.36829 72.9575 4.49914 72.8513 4.65465C72.7489 4.80636 72.6636 4.97704 72.5953 5.16668V9.11503H71.5371V2.95924H72.5384L72.5839 3.78419L72.5896 3.9378C72.84 3.60023 73.1396 3.33474 73.4885 3.1413C73.8413 2.94407 74.2414 2.84546 74.689 2.84546Z" fill="#0E21A1"/>
<path d="M63.3643 5.98024C63.3643 5.53648 63.4287 5.12496 63.5577 4.74567C63.6867 4.3626 63.8725 4.03072 64.1152 3.75005C64.3542 3.46938 64.6462 3.2494 64.9914 3.0901C65.3365 2.92701 65.7253 2.84546 66.1577 2.84546C66.5939 2.84546 66.9845 2.92701 67.3297 3.0901C67.6786 3.2494 67.9745 3.46938 68.2172 3.75005C68.4562 4.03072 68.6401 4.3626 68.7691 4.74567C68.898 5.12496 68.9625 5.53648 68.9625 5.98024V6.10541C68.9625 6.54917 68.898 6.96069 68.7691 7.33998C68.6401 7.71926 68.4562 8.04924 68.2172 8.32991C67.9745 8.61058 67.6805 8.83057 67.3354 8.98986C66.9902 9.14916 66.6015 9.22881 66.1691 9.22881C65.7329 9.22881 65.3403 9.14916 64.9914 8.98986C64.6462 8.83057 64.3542 8.61058 64.1152 8.32991C63.8725 8.04924 63.6867 7.71926 63.5577 7.33998C63.4287 6.96069 63.3643 6.54917 63.3643 6.10541V5.98024ZM64.4168 6.10541C64.4168 6.40883 64.4528 6.69899 64.5249 6.97586C64.5969 7.24895 64.7069 7.4898 64.8548 7.6984C64.999 7.90701 65.181 8.072 65.401 8.19337C65.621 8.31474 65.877 8.37542 66.1691 8.37542C66.4573 8.37542 66.7096 8.31474 66.9257 8.19337C67.1457 8.072 67.3297 7.90701 67.4776 7.6984C67.6217 7.4898 67.7298 7.24895 67.8019 6.97586C67.874 6.69899 67.91 6.40883 67.91 6.10541V5.98024C67.91 5.68061 67.8721 5.39425 67.7962 5.12116C67.7241 4.84429 67.616 4.60155 67.4719 4.39294C67.324 4.18433 67.14 4.01934 66.9201 3.89797C66.7039 3.77281 66.4497 3.71023 66.1577 3.71023C65.8656 3.71023 65.6115 3.77281 65.3953 3.89797C65.1791 4.01934 64.999 4.18433 64.8548 4.39294C64.7069 4.60155 64.5969 4.84429 64.5249 5.12116C64.4528 5.39425 64.4168 5.68061 64.4168 5.98024V6.10541Z" fill="#0E21A1"/>
<path d="M61.2684 5.45691H57.8207V9.11511H56.7568V0.831543H61.8431V1.73045H57.8207V4.5637H61.2684V5.45691Z" fill="#0E21A1"/>
<path d="M44.4971 8.43295C44.4971 8.20917 44.5653 8.01763 44.7019 7.85833C44.8384 7.69903 45.0451 7.61938 45.322 7.61938C45.5951 7.61938 45.8018 7.69903 45.9421 7.85833C46.0863 8.01384 46.1583 8.20538 46.1583 8.43295C46.1583 8.65673 46.0863 8.84447 45.9421 8.99619C45.798 9.1479 45.5913 9.22376 45.322 9.22376C45.0489 9.22376 44.8422 9.1479 44.7019 8.99619C44.5653 8.84068 44.4971 8.65293 44.4971 8.43295Z" fill="#0E21A1"/>
<path d="M38.3876 9.22881C37.9553 9.22881 37.557 9.15485 37.1929 9.00693C36.8326 8.85901 36.5235 8.6523 36.2655 8.3868C36.0076 8.1213 35.8066 7.8065 35.6625 7.44238C35.5184 7.07827 35.4463 6.68192 35.4463 6.25333V6.01438C35.4463 5.51752 35.5259 5.07375 35.6852 4.68309C35.8445 4.28864 36.0569 3.95487 36.3224 3.68178C36.5841 3.41249 36.8819 3.20578 37.2157 3.06165C37.5532 2.91752 37.8984 2.84546 38.2511 2.84546C38.6949 2.84546 39.0817 2.92321 39.4117 3.07872C39.7455 3.23043 40.0224 3.44094 40.2424 3.71023C40.4623 3.98331 40.6254 4.30381 40.7316 4.67171C40.8416 5.03962 40.8966 5.43787 40.8966 5.86646V6.33867H36.4988V6.37849C36.5254 6.67813 36.5841 6.94173 36.6752 7.1693C36.77 7.39687 36.899 7.59789 37.062 7.77236C37.2289 7.95821 37.43 8.10424 37.6651 8.21044C37.9003 8.31664 38.1601 8.36973 38.4445 8.36973C38.82 8.36973 39.1538 8.29388 39.4459 8.14216C39.7379 7.99045 39.9806 7.78943 40.1741 7.5391L40.817 8.03976C40.6122 8.35077 40.3049 8.62765 39.8953 8.87039C39.4895 9.10934 38.9869 9.22881 38.3876 9.22881ZM38.2511 3.71023C38.0387 3.71023 37.8377 3.75005 37.648 3.8297C37.4584 3.90556 37.2877 4.01745 37.136 4.16537C36.9843 4.31708 36.8553 4.50293 36.7491 4.72292C36.6467 4.93911 36.5747 5.18944 36.5329 5.4739H39.8441V5.4227C39.8441 5.23305 39.8081 5.03014 39.736 4.81394C39.6639 4.59396 39.5634 4.40432 39.4345 4.24502C39.3055 4.08572 39.1424 3.95676 38.9452 3.85815C38.7518 3.75953 38.5204 3.71023 38.2511 3.71023Z" fill="#0E21A1"/>
<path d="M32.7026 2.84546C32.8961 2.84546 33.0971 2.85873 33.3057 2.88528C33.5181 2.91183 33.6774 2.94787 33.7836 2.99338L33.6414 4.02314C33.4366 3.97762 33.2412 3.94538 33.0554 3.92642C32.8733 3.90366 32.6818 3.89228 32.4808 3.89228C32.2228 3.89228 31.9896 3.92452 31.781 3.989C31.5724 4.04969 31.3903 4.14072 31.2348 4.26209C31.0945 4.36829 30.9712 4.49914 30.865 4.65465C30.7626 4.80636 30.6773 4.97704 30.609 5.16668V9.11503H29.5508V2.95924H30.5521L30.5976 3.78419L30.6033 3.9378C30.8536 3.60023 31.1533 3.33474 31.5022 3.1413C31.8549 2.94407 32.2551 2.84546 32.7026 2.84546Z" fill="#0E21A1"/>
<path d="M25.7284 9.1155L25.6658 8.2678C25.461 8.57123 25.205 8.80828 24.8977 8.97896C24.5905 9.14584 24.2359 9.22929 23.8338 9.22929C23.5115 9.22929 23.2194 9.17998 22.9577 9.08137C22.696 8.97896 22.4722 8.82156 22.2864 8.60916C22.1005 8.39676 21.9564 8.12747 21.854 7.80128C21.7554 7.4713 21.7061 7.07685 21.7061 6.61791V2.95972H22.7586V6.62929C22.7586 6.96306 22.7851 7.23994 22.8382 7.45993C22.8913 7.67991 22.971 7.85438 23.0772 7.98334C23.1834 8.11609 23.3123 8.20901 23.464 8.26211C23.6195 8.31521 23.7978 8.34176 23.9988 8.34176C24.234 8.34176 24.4445 8.31521 24.6303 8.26211C24.8162 8.20522 24.9774 8.12747 25.1139 8.02885C25.2277 7.9492 25.3263 7.85438 25.4098 7.74439C25.497 7.6306 25.5691 7.50734 25.626 7.37459V2.95972H26.6842V9.1155H25.7284Z" fill="#0E21A1"/>
<path d="M17.1661 1.46899V2.95958H19.5101V3.77315H17.1661V7.11843C17.1661 7.35738 17.1965 7.55461 17.2572 7.71012C17.3179 7.86562 17.4013 7.98889 17.5075 8.07992C17.6137 8.17474 17.7351 8.24111 17.8716 8.27904C18.012 8.31697 18.1599 8.33594 18.3154 8.33594C18.4292 8.33594 18.5467 8.33025 18.6681 8.31887C18.7895 8.3037 18.909 8.28663 19.0265 8.26766C19.1403 8.2487 19.2465 8.22974 19.3451 8.21077C19.4475 8.18801 19.531 8.16905 19.5955 8.15388L19.7434 8.89917C19.6562 8.95227 19.55 8.99968 19.4248 9.0414C19.2996 9.07933 19.1631 9.11157 19.0152 9.13812C18.8672 9.16846 18.7098 9.19122 18.543 9.20639C18.3799 9.22156 18.2168 9.22915 18.0537 9.22915C17.7806 9.22915 17.5246 9.19122 17.2856 9.11537C17.0505 9.03572 16.8457 8.91055 16.6712 8.73987C16.4967 8.57299 16.3583 8.3568 16.2559 8.0913C16.1572 7.82201 16.1079 7.49772 16.1079 7.11843V3.77315H14.4922V2.95958H16.1079V1.46899H17.1661Z" fill="#0E21A1"/>
<path d="M11.7323 9.1155L11.6697 8.2678C11.4649 8.57123 11.2089 8.80828 10.9016 8.97896C10.5944 9.14584 10.2398 9.22929 9.83775 9.22929C9.51536 9.22929 9.22331 9.17998 8.9616 9.08137C8.6999 8.97896 8.47612 8.82156 8.29027 8.60916C8.10442 8.39676 7.96029 8.12747 7.85788 7.80128C7.75927 7.4713 7.70996 7.07685 7.70996 6.61791V2.95972H8.76248V6.62929C8.76248 6.96306 8.78903 7.23994 8.84213 7.45993C8.89523 7.67991 8.97488 7.85438 9.08108 7.98334C9.18728 8.11609 9.31623 8.20901 9.46795 8.26211C9.62345 8.31521 9.80172 8.34176 10.0027 8.34176C10.2379 8.34176 10.4484 8.31521 10.6343 8.26211C10.8201 8.20522 10.9813 8.12747 11.1178 8.02885C11.2316 7.9492 11.3302 7.85438 11.4137 7.74439C11.5009 7.6306 11.573 7.50734 11.6299 7.37459V2.95972H12.6881V9.1155H11.7323Z" fill="#0E21A1"/>
<path d="M5.28601 5.45691H1.83831V9.11511H0.774414V0.831543H5.86063V1.73045H1.83831V4.5637H5.28601V5.45691Z" fill="#0E21A1"/>
</svg>
