<svg width="33" height="33" viewBox="0 0 33 33" fill="none" xmlns="http://www.w3.org/2000/svg">
<path d="M16.5 3.72219C20.775 3.72219 21.2813 3.74094 22.9625 3.81594C24.525 3.88469 25.3688 4.14719 25.9313 4.36594C26.675 4.65344 27.2125 5.00344 27.7688 5.55969C28.3313 6.12219 28.675 6.65344 28.9625 7.39719C29.1813 7.95969 29.4438 8.80969 29.5125 10.3659C29.5875 12.0534 29.6063 12.5597 29.6063 16.8284C29.6063 21.1034 29.5875 21.6097 29.5125 23.2909C29.4438 24.8534 29.1813 25.6972 28.9625 26.2597C28.675 27.0034 28.325 27.5409 27.7688 28.0972C27.2063 28.6597 26.675 29.0034 25.9313 29.2909C25.3688 29.5097 24.5188 29.7722 22.9625 29.8409C21.275 29.9159 20.7688 29.9347 16.5 29.9347C12.225 29.9347 11.7188 29.9159 10.0375 29.8409C8.475 29.7722 7.63125 29.5097 7.06875 29.2909C6.325 29.0034 5.7875 28.6534 5.23125 28.0972C4.66875 27.5347 4.325 27.0034 4.0375 26.2597C3.81875 25.6972 3.55625 24.8472 3.4875 23.2909C3.4125 21.6034 3.39375 21.0972 3.39375 16.8284C3.39375 12.5534 3.4125 12.0472 3.4875 10.3659C3.55625 8.80344 3.81875 7.95969 4.0375 7.39719C4.325 6.65344 4.675 6.11594 5.23125 5.55969C5.79375 4.99719 6.325 4.65344 7.06875 4.36594C7.63125 4.14719 8.48125 3.88469 10.0375 3.81594C11.7188 3.74094 12.225 3.72219 16.5 3.72219ZM16.5 0.840942C12.1563 0.840942 11.6125 0.859692 9.90625 0.934692C8.20625 1.00969 7.0375 1.28469 6.025 1.67844C4.96875 2.09094 4.075 2.63469 3.1875 3.52844C2.29375 4.41594 1.75 5.30969 1.3375 6.35969C0.94375 7.37844 0.66875 8.54094 0.59375 10.2409C0.51875 11.9534 0.5 12.4972 0.5 16.8409C0.5 21.1847 0.51875 21.7284 0.59375 23.4347C0.66875 25.1347 0.94375 26.3034 1.3375 27.3159C1.75 28.3722 2.29375 29.2659 3.1875 30.1534C4.075 31.0409 4.96875 31.5909 6.01875 31.9972C7.0375 32.3909 8.2 32.6659 9.9 32.7409C11.6063 32.8159 12.15 32.8347 16.4938 32.8347C20.8375 32.8347 21.3813 32.8159 23.0875 32.7409C24.7875 32.6659 25.9563 32.3909 26.9688 31.9972C28.0188 31.5909 28.9125 31.0409 29.8 30.1534C30.6875 29.2659 31.2375 28.3722 31.6438 27.3222C32.0375 26.3034 32.3125 25.1409 32.3875 23.4409C32.4625 21.7347 32.4813 21.1909 32.4813 16.8472C32.4813 12.5034 32.4625 11.9597 32.3875 10.2534C32.3125 8.55344 32.0375 7.38469 31.6438 6.37219C31.25 5.30969 30.7063 4.41594 29.8125 3.52844C28.925 2.64094 28.0313 2.09094 26.9813 1.68469C25.9625 1.29094 24.8 1.01594 23.1 0.940942C21.3875 0.859692 20.8438 0.840942 16.5 0.840942Z" fill="white"/>
<path d="M16.5 8.62219C11.9625 8.62219 8.28125 12.3034 8.28125 16.8409C8.28125 21.3784 11.9625 25.0597 16.5 25.0597C21.0375 25.0597 24.7188 21.3784 24.7188 16.8409C24.7188 12.3034 21.0375 8.62219 16.5 8.62219ZM16.5 22.1722C13.5563 22.1722 11.1687 19.7847 11.1687 16.8409C11.1687 13.8972 13.5563 11.5097 16.5 11.5097C19.4438 11.5097 21.8312 13.8972 21.8312 16.8409C21.8312 19.7847 19.4438 22.1722 16.5 22.1722Z" fill="white"/>
<path d="M26.9625 8.29722C26.9625 9.35972 26.1 10.216 25.0438 10.216C23.9813 10.216 23.125 9.35347 23.125 8.29722C23.125 7.23472 23.9875 6.37846 25.0438 6.37846C26.1 6.37846 26.9625 7.24097 26.9625 8.29722Z" fill="white"/>
</svg>
