<svg width="96" height="68" viewBox="0 0 96 68" fill="none" xmlns="http://www.w3.org/2000/svg">
<path d="M4.77962 48.1237C6.02942 51.3474 7.73054 54.6479 10.0764 57.5294C9.76642 53.9214 10.0318 49.438 12.2685 45.7506C16.4518 38.8421 23.9605 38.5743 23.9605 38.5743C23.0306 37.513 19.8417 35.2539 19.8417 35.2539C19.8417 35.2539 29.54 32.9924 41.1056 39.9059C50.5435 45.5448 55.5675 43.9454 57.0926 43.1668C57.1298 43.1469 57.167 43.1246 57.2042 43.1048C57.3356 43.0254 57.4596 42.9485 57.5836 42.8692C57.596 42.8617 57.6009 42.8568 57.6009 42.8568C59.4161 41.6591 60.6287 39.9853 61.2015 37.9866C61.4098 37.26 61.0131 36.4963 60.3088 36.2235C56.9736 34.9365 47.5728 31.2467 46.1544 29.9374C44.6268 28.5264 44.7632 27.6362 44.5376 24.7374C44.4706 23.8769 44.1284 23.0611 43.568 22.4015C42.3926 21.0178 38.5589 17.3106 34.9707 15.126C38.6655 9.35564 38.6234 3.27037 38.6234 3.27037C37.6488 5.92865 35.0748 9.65072 35.0748 9.65072C35.0748 6.55106 33.7804 2.91577 33.7804 2.91577C33.7804 2.91577 33.8002 3.00256 33.7605 3.18358C33.7556 3.19102 33.7556 3.20094 33.7556 3.21334C33.6366 4.47057 33.0414 9.5193 30.8493 13.715C30.1178 15.1136 29.2077 16.4179 28.0794 17.4569C27.881 17.6379 27.6752 17.8115 27.4644 17.9777L29.6714 20.3706C29.6714 20.3706 18.9093 20.4127 10.8897 28.6107C5.19622 34.4307 4.47709 42.6262 4.77962 48.1237Z" fill="#DA9516"/>
<path d="M87.6097 30.7148L59.0553 2.16074C58.1551 1.2606 56.9772 0.811768 55.7994 0.811768H34.2899C34.6098 1.79126 35.5497 4.88844 35.5497 7.60375C35.5497 7.60375 38.2625 3.67833 39.2941 0.871279C39.2941 0.871279 40.8737 8.59812 36.973 14.6883C40.7572 16.9945 43.2691 19.6007 44.509 21.0612C45.0992 21.7556 45.4612 22.616 45.5332 23.5261C45.7712 26.5836 45.6274 27.5234 47.2392 29.0137C48.7345 30.395 58.656 34.2906 62.1748 35.647C62.9187 35.9347 63.3378 36.7406 63.1171 37.5068C62.5121 39.6146 61.2325 41.8786 59.3181 43.1432C59.3181 43.1432 58.8197 43.4483 58.7825 43.4706C55.7721 45.2113 51.3581 45.3081 45.6646 44.2318C34.8181 42.1737 25.9232 43.106 25.1768 52.7596C24.5867 60.3501 30.6893 66.1353 31.6019 66.9561H54.5272C56.0473 66.9561 57.8303 67.0131 59.0578 65.7881L87.6122 37.2341C89.41 35.4362 89.41 32.5176 87.6122 30.7198L87.6097 30.7148Z" fill="url(#paint0_linear_105_185)"/>
<path d="M41.6778 30.4113L40.3983 28.1448C39.7882 27.0612 38.8484 26.3247 37.7945 26.0966L32.9268 25.0452C32.9268 25.0452 35.2354 29.7467 41.6778 30.4113Z" fill="#0B1D5E"/>
<path d="M1.9209 40.0205C2.3623 41.9994 2.9624 44.1915 3.78568 46.4306C3.58482 41.0992 4.4205 33.174 10.0322 27.6318C17.9377 19.8256 28.3625 19.967 28.3625 19.967L26.2647 17.6112C26.4705 17.455 26.6738 17.2889 26.8697 17.1178C27.9807 16.1308 28.8833 14.881 29.6148 13.5395C31.8069 9.51241 32.221 4.6323 32.3574 3.41724C32.2161 3.95534 31.7797 5.2572 28.5783 7.35257C25.8754 9.12062 24.204 11.0746 23.3262 12.2972C15.4207 11.7367 5.55622 14.0826 0.5 18.613C0.5 18.6031 0.5 19.2255 0.5 19.595L2.13912 21.058C2.13912 21.058 -0.31088 30.0297 1.91842 40.0255L1.9209 40.0205Z" fill="url(#paint1_linear_105_185)"/>
<path d="M41.2656 0.0934081C41.2804 0.137856 41.2928 0.182301 41.3101 0.234157C41.2903 0.123038 41.278 0.0588379 41.278 0.0588379C41.273 0.0711844 41.2706 0.0810615 41.2656 0.0934081Z" fill="url(#paint2_linear_105_185)"/>
<path d="M94.554 30.523L65.9996 1.37625C65.0995 0.458751 63.9216 0 62.7437 0H57.7842C58.9621 0 60.1424 0.458751 61.0401 1.37625L89.5945 30.523C91.3923 32.358 91.3923 35.3362 89.5945 37.1712L61.0401 66.3179C60.4673 66.9031 59.7779 67.2999 59.0513 67.5107C59.0513 67.5107 64.7746 67.5702 65.9996 66.3179L94.554 37.1712C96.3518 35.3362 96.3518 32.358 94.554 30.523Z" fill="url(#paint3_linear_105_185)"/>
<path d="M41.6778 30.4113L40.3983 28.1448C39.7882 27.0612 38.8484 26.3247 37.7945 26.0966L32.9268 25.0452C32.9268 25.0452 35.2354 29.7467 41.6778 30.4113Z" fill="#212123"/>
<defs>
<linearGradient id="paint0_linear_105_185" x1="25.1347" y1="33.8839" x2="88.9587" y2="33.8839" gradientUnits="userSpaceOnUse">
<stop stop-color="#CB8C0E"/>
<stop offset="0.17" stop-color="#D79D13"/>
<stop offset="0.34" stop-color="#E4AF18"/>
<stop offset="0.596154" stop-color="#FFF98C"/>
<stop offset="0.84" stop-color="#FFD440"/>
</linearGradient>
<linearGradient id="paint1_linear_105_185" x1="0.50248" y1="24.9215" x2="32.3599" y2="24.9215" gradientUnits="userSpaceOnUse">
<stop stop-color="#D79617"/>
<stop offset="0.03" stop-color="#B46A11"/>
<stop offset="0.32" stop-color="#D68D15"/>
<stop offset="0.68" stop-color="#E7AC18"/>
<stop offset="1" stop-color="#F8C73D"/>
</linearGradient>
<linearGradient id="paint2_linear_105_185" x1="41.2656" y1="0.147732" x2="41.3101" y2="0.147732" gradientUnits="userSpaceOnUse">
<stop offset="0.32" stop-color="white" stop-opacity="0"/>
<stop offset="1" stop-color="#F9B800"/>
</linearGradient>
<linearGradient id="paint3_linear_105_185" x1="57.7842" y1="33.7566" x2="95.903" y2="33.7566" gradientUnits="userSpaceOnUse">
<stop offset="0.32" stop-color="white" stop-opacity="0"/>
<stop offset="1" stop-color="#F9B800"/>
</linearGradient>
</defs>
</svg>
