<svg width="33" height="33" viewBox="0 0 33 33" fill="none" xmlns="http://www.w3.org/2000/svg">
<g clip-path="url(#clip0_105_439)">
<path d="M30.1378 0.840942H2.86222C2.23572 0.840942 1.63488 1.08982 1.19188 1.53282C0.748877 1.97582 0.5 2.57666 0.5 3.20316V30.4787C0.5 31.1052 0.748877 31.7061 1.19188 32.1491C1.63488 32.5921 2.23572 32.8409 2.86222 32.8409H30.1378C30.7643 32.8409 31.3651 32.5921 31.8081 32.1491C32.2511 31.7061 32.5 31.1052 32.5 30.4787V3.20316C32.5 2.57666 32.2511 1.97582 31.8081 1.53282C31.3651 1.08982 30.7643 0.840942 30.1378 0.840942ZM10.0378 28.1009H5.22667V12.8187H10.0378V28.1009ZM7.62889 10.7009C7.08315 10.6979 6.55055 10.5332 6.09831 10.2277C5.64607 9.92225 5.29445 9.48965 5.08784 8.98453C4.88122 8.47941 4.82886 7.9244 4.93737 7.38955C5.04589 6.8547 5.3104 6.36398 5.69754 5.97932C6.08468 5.59466 6.57709 5.3333 7.11262 5.22822C7.64816 5.12315 8.20282 5.17907 8.7066 5.38892C9.21039 5.59878 9.64072 5.95317 9.94329 6.40736C10.2459 6.86155 10.4071 7.3952 10.4067 7.94094C10.4118 8.30632 10.3433 8.66899 10.2053 9.00735C10.0674 9.3457 9.86264 9.65281 9.60343 9.91037C9.34421 10.1679 9.0358 10.3707 8.69657 10.5065C8.35733 10.6423 7.99423 10.7084 7.62889 10.7009ZM27.7711 28.1143H22.9622V19.7654C22.9622 17.3032 21.9156 16.5432 20.5644 16.5432C19.1378 16.5432 17.7378 17.6187 17.7378 19.8276V28.1143H12.9267V12.8298H17.5533V14.9476H17.6156C18.08 14.0076 19.7067 12.4009 22.1889 12.4009C24.8733 12.4009 27.7733 13.9943 27.7733 18.6609L27.7711 28.1143Z" fill="white"/>
</g>
<defs>
<clipPath id="clip0_105_439">
<rect width="32" height="32" fill="white" transform="translate(0.5 0.840942)"/>
</clipPath>
</defs>
</svg>
