<svg width="182" height="32" viewBox="0 0 182 32" fill="none" xmlns="http://www.w3.org/2000/svg">
<path d="M181.239 30.8034H174.067L162.07 12.6408V30.8034H154.897V1.35742H162.07L174.067 19.6038V1.35742H181.239V30.8034Z" fill="#0E21A1"/>
<path d="M135.848 31.0968C133.079 31.0968 130.534 30.4536 128.213 29.1673C125.92 27.8809 124.089 26.0912 122.718 23.7982C121.376 21.4772 120.705 18.8766 120.705 15.9963C120.705 13.116 121.376 10.5294 122.718 8.23631C124.089 5.94328 125.92 4.15359 128.213 2.86725C130.534 1.58091 133.079 0.937744 135.848 0.937744C138.616 0.937744 141.147 1.58091 143.44 2.86725C145.761 4.15359 147.578 5.94328 148.893 8.23631C150.235 10.5294 150.906 13.116 150.906 15.9963C150.906 18.8766 150.235 21.4772 148.893 23.7982C147.55 26.0912 145.733 27.8809 143.44 29.1673C141.147 30.4536 138.616 31.0968 135.848 31.0968ZM135.848 24.5532C138.197 24.5532 140.07 23.7702 141.468 22.2043C142.894 20.6383 143.608 18.569 143.608 15.9963C143.608 13.3956 142.894 11.3263 141.468 9.78831C140.07 8.22233 138.197 7.43934 135.848 7.43934C133.471 7.43934 131.569 8.20835 130.143 9.74636C128.745 11.2844 128.046 13.3677 128.046 15.9963C128.046 18.5969 128.745 20.6802 130.143 22.2462C131.569 23.7842 133.471 24.5532 135.848 24.5532Z" fill="#0E21A1"/>
<path d="M118.925 1.35742L108.481 30.8034H99.5041L89.0596 1.35742H96.6937L103.992 23.5887L111.333 1.35742H118.925Z" fill="#0E21A1"/>
<path d="M86.0829 1.35742V30.8034H78.9102V1.35742H86.0829Z" fill="#0E21A1"/>
<path d="M66.5635 30.8034L60.4394 19.6877H58.7196V30.8034H51.5469V1.35742H63.5854C65.9064 1.35742 67.8778 1.7629 69.4997 2.57385C71.1496 3.3848 72.38 4.50336 73.191 5.92951C74.0019 7.32771 74.4074 8.89368 74.4074 10.6274C74.4074 12.5849 73.8481 14.3327 72.7296 15.8707C71.639 17.4087 70.0171 18.4993 67.8638 19.1424L74.6591 30.8034H66.5635ZM58.7196 14.6123H63.1659C64.4802 14.6123 65.4589 14.2907 66.1021 13.6475C66.7732 13.0044 67.1088 12.0955 67.1088 10.9211C67.1088 9.80251 66.7732 8.92165 66.1021 8.27848C65.4589 7.63531 64.4802 7.31373 63.1659 7.31373H58.7196V14.6123Z" fill="#0E21A1"/>
<path d="M47.9466 1.35742V7.104H40.1446V30.8034H32.9719V7.104H25.1699V1.35742H47.9466Z" fill="#0E21A1"/>
<path d="M11.6143 31.0968C9.46105 31.0968 7.53154 30.7472 5.82574 30.0481C4.11994 29.349 2.7497 28.3144 1.71504 26.9441C0.708336 25.5739 0.177022 23.924 0.121094 21.9945H7.75525C7.86711 23.0851 8.24462 23.924 8.88779 24.5113C9.53096 25.0706 10.3699 25.3502 11.4045 25.3502C12.4672 25.3502 13.3061 25.1125 13.9213 24.6371C14.5365 24.1338 14.8441 23.4487 14.8441 22.5818C14.8441 21.8547 14.5924 21.2535 14.0891 20.7781C13.6137 20.3027 13.0125 19.9112 12.2854 19.6036C11.5863 19.296 10.5796 18.9465 9.2653 18.555C7.36375 17.9677 5.81176 17.3805 4.60931 16.7933C3.40686 16.206 2.37219 15.3391 1.50531 14.1926C0.638427 13.0461 0.204986 11.55 0.204986 9.70442C0.204986 6.96396 1.19771 4.82472 3.18315 3.28671C5.16859 1.72073 7.75525 0.937744 10.9431 0.937744C14.187 0.937744 16.8016 1.72073 18.787 3.28671C20.7725 4.82472 21.8351 6.97794 21.9749 9.74636H14.2149C14.159 8.79559 13.8094 8.05455 13.1663 7.52324C12.5231 6.96396 11.6982 6.68432 10.6915 6.68432C9.82458 6.68432 9.12548 6.92201 8.59417 7.3974C8.06285 7.84482 7.7972 8.50197 7.7972 9.36885C7.7972 10.3196 8.24462 11.0607 9.13946 11.592C10.0343 12.1233 11.4325 12.6966 13.3341 13.3118C15.2356 13.9549 16.7736 14.5701 17.9481 15.1574C19.1506 15.7446 20.1852 16.5975 21.0521 17.7161C21.919 18.8346 22.3524 20.2748 22.3524 22.0365C22.3524 23.7143 21.919 25.2384 21.0521 26.6086C20.2132 27.9788 18.9828 29.0694 17.3609 29.8804C15.739 30.6913 13.8234 31.0968 11.6143 31.0968Z" fill="#0E21A1"/>
</svg>
