<svg width="1187" height="200" viewBox="0 0 1187 200" fill="none" xmlns="http://www.w3.org/2000/svg">
<path d="M1186.5 197.896H1139.53L1060.98 77.5467V197.896H1014.01V2.78003H1060.98L1139.53 123.685V2.78003H1186.5V197.896Z" fill="url(#paint0_linear_105_423)"/>
<path d="M889.265 199.841C871.137 199.841 854.474 195.579 839.275 187.056C824.26 178.532 812.266 166.673 803.294 151.479C794.504 136.099 790.109 118.867 790.109 99.7815C790.109 80.6961 794.504 63.5563 803.294 48.3621C812.266 33.1679 824.26 21.309 839.275 12.7854C854.474 4.26179 871.137 0 889.265 0C907.394 0 923.965 4.26179 938.981 12.7854C954.179 21.309 966.082 33.1679 974.688 48.3621C983.477 63.5563 987.872 80.6961 987.872 99.7815C987.872 118.867 983.477 136.099 974.688 151.479C965.899 166.673 953.996 178.532 938.981 187.056C923.965 195.579 907.394 199.841 889.265 199.841ZM889.265 156.482C904.647 156.482 916.916 151.294 926.071 140.917C935.41 130.541 940.079 116.829 940.079 99.7815C940.079 82.5491 935.41 68.8372 926.071 58.646C916.916 48.2694 904.647 43.0811 889.265 43.0811C873.701 43.0811 861.249 48.1768 851.91 58.368C842.755 68.5593 838.177 82.3638 838.177 99.7815C838.177 117.014 842.755 130.818 851.91 141.195C861.249 151.386 873.701 156.482 889.265 156.482Z" fill="url(#paint1_linear_105_423)"/>
<path d="M778.454 2.78003L710.061 197.896H651.282L582.889 2.78003H632.879L680.671 150.09L728.739 2.78003H778.454Z" fill="url(#paint2_linear_105_423)"/>
<path d="M563.396 2.78003V197.896H516.428V2.78003H563.396Z" fill="url(#paint3_linear_105_423)"/>
<path d="M435.579 197.896L395.477 124.241H384.216V197.896H337.247V2.78003H416.078C431.276 2.78003 444.185 5.46681 454.806 10.8404C465.61 16.2139 473.667 23.6257 478.977 33.0758C484.287 42.3406 486.943 52.7171 486.943 64.2054C486.943 77.1761 483.28 88.7571 475.956 98.9483C468.814 109.14 458.194 116.366 444.094 120.628L488.591 197.896H435.579ZM384.216 90.61H413.331C421.937 90.61 428.346 88.4791 432.558 84.2173C436.952 79.9555 439.15 73.9334 439.15 66.151C439.15 58.7392 436.952 52.9024 432.558 48.6406C428.346 44.3788 421.937 42.2479 413.331 42.2479H384.216V90.61Z" fill="url(#paint4_linear_105_423)"/>
<path d="M313.672 2.78003V40.8582H262.583V197.896H215.614V40.8582H164.525V2.78003H313.672Z" fill="url(#paint5_linear_105_423)"/>
<path d="M75.7597 199.841C61.66 199.841 49.0251 197.525 37.8552 192.892C26.6853 188.26 17.7127 181.404 10.9375 172.325C4.34539 163.245 0.866227 152.313 0.5 139.527H50.49C51.2225 146.754 53.6945 152.313 57.9061 156.204C62.1178 159.91 67.6112 161.763 74.3864 161.763C81.3447 161.763 86.8381 160.188 90.8666 157.038C94.8951 153.702 96.9094 149.163 96.9094 143.419C96.9094 138.601 95.2613 134.617 91.9653 131.467C88.8524 128.317 84.9154 125.723 80.1545 123.685C75.5766 121.646 68.9845 119.33 60.3782 116.736C47.9265 112.845 37.7636 108.954 29.8898 105.062C22.0159 101.171 15.2407 95.4271 9.56413 87.83C3.8876 80.2329 1.04934 70.3196 1.04934 58.0901C1.04934 39.9311 7.54988 25.756 20.5509 15.5648C33.552 5.18826 50.49 0 71.365 0C92.6062 0 109.727 5.18826 122.728 15.5648C135.729 25.756 142.688 40.0238 143.603 58.368H92.7893C92.4231 52.068 90.1342 47.1577 85.9225 43.637C81.7109 39.9311 76.3091 38.0782 69.717 38.0782C64.0405 38.0782 59.4626 39.6532 55.9835 42.8032C52.5043 45.7679 50.7647 50.1224 50.7647 55.8665C50.7647 62.1666 53.6945 67.0769 59.5542 70.5975C65.4138 74.1181 74.5695 77.9167 87.0212 81.9932C99.473 86.255 109.544 90.3314 117.235 94.2226C125.109 98.1138 131.884 103.765 137.561 111.177C143.237 118.589 146.075 128.132 146.075 139.805C146.075 150.923 143.237 161.022 137.561 170.101C132.067 179.181 124.01 186.407 113.39 191.781C102.769 197.154 90.2257 199.841 75.7597 199.841Z" fill="url(#paint6_linear_105_423)"/>
<defs>
<linearGradient id="paint0_linear_105_423" x1="1100.69" y1="-25.0461" x2="1198.78" y2="173.982" gradientUnits="userSpaceOnUse">
<stop stop-color="#363636"/>
<stop offset="1" stop-color="#212123"/>
</linearGradient>
<linearGradient id="paint1_linear_105_423" x1="889.491" y1="-28.5" x2="982.925" y2="183.723" gradientUnits="userSpaceOnUse">
<stop stop-color="#363636"/>
<stop offset="1" stop-color="#212123"/>
</linearGradient>
<linearGradient id="paint2_linear_105_423" x1="681.166" y1="-25.0461" x2="771.604" y2="183.01" gradientUnits="userSpaceOnUse">
<stop stop-color="#363636"/>
<stop offset="1" stop-color="#212123"/>
</linearGradient>
<linearGradient id="paint3_linear_105_423" x1="540.031" y1="-25.0461" x2="644.74" y2="32.8073" gradientUnits="userSpaceOnUse">
<stop stop-color="#363636"/>
<stop offset="1" stop-color="#212123"/>
</linearGradient>
<linearGradient id="paint4_linear_105_423" x1="413.302" y1="-25.0461" x2="518.923" y2="162.995" gradientUnits="userSpaceOnUse">
<stop stop-color="#363636"/>
<stop offset="1" stop-color="#212123"/>
</linearGradient>
<linearGradient id="paint5_linear_105_423" x1="239.476" y1="-25.0461" x2="345.896" y2="161.665" gradientUnits="userSpaceOnUse">
<stop stop-color="#363636"/>
<stop offset="1" stop-color="#212123"/>
</linearGradient>
<linearGradient id="paint6_linear_105_423" x1="73.6559" y1="-28.5" x2="185.264" y2="158.106" gradientUnits="userSpaceOnUse">
<stop stop-color="#363636"/>
<stop offset="1" stop-color="#212123"/>
</linearGradient>
</defs>
</svg>
